<?xml version="1.0" standalone="no"?>
<!DOCTYPE svg PUBLIC "-//W3C//DTD SVG 20010904//EN"
 "http://www.w3.org/TR/2001/REC-SVG-20010904/DTD/svg10.dtd">
<svg version="1.0" xmlns="http://www.w3.org/2000/svg"
 width="1024.000000pt" height="1024.000000pt" viewBox="0 0 1024.000000 1024.000000"
 preserveAspectRatio="xMidYMid meet">
<metadata>
Created by potrace 1.14, written by Peter Selinger 2001-2017
</metadata>
<g transform="translate(0.000000,1024.000000) scale(0.100000,-0.100000)"
fill="#000000" stroke="none">
<path d="M0 5120 l0 -5120 5120 0 5120 0 0 5120 0 5120 -1906 0 c-1048 0
-1903 -4 -1900 -8 3 -5 8 -23 11 -40 4 -24 2 -32 -9 -32 -8 0 -18 -5 -22 -12
-5 -7 -3 -8 6 -3 10 6 12 4 6 -11 -4 -10 -8 -21 -9 -24 -1 -3 3 -5 8 -5 6 0 9
5 7 12 -2 7 1 13 6 13 19 0 19 -12 1 -47 -13 -26 -16 -40 -8 -49 7 -8 6 -14
-2 -20 -8 -4 -9 -3 -5 4 4 7 2 12 -3 12 -14 0 -14 -17 -1 -25 6 -3 10 -11 10
-16 0 -6 -4 -7 -10 -4 -9 5 -15 -15 -11 -37 0 -5 -4 -8 -9 -8 -6 0 -10 -5 -10
-11 0 -5 4 -8 9 -5 4 3 6 -6 3 -21 -4 -20 -2 -24 9 -18 12 8 12 6 0 -8 -7 -9
-17 -15 -21 -12 -4 3 -16 -7 -25 -21 -9 -15 -12 -23 -6 -20 6 4 11 3 11 -3 0
-5 -5 -13 -11 -17 -8 -4 -7 -9 2 -15 10 -6 8 -9 -7 -9 -31 0 -37 -25 -11 -45
12 -9 16 -13 9 -10 -8 4 -15 -5 -19 -27 -4 -18 -6 -36 -5 -40 1 -5 -6 -8 -16
-8 -14 0 -15 -2 -2 -10 11 -7 11 -10 2 -10 -7 0 -10 -4 -7 -10 3 -5 -2 -10
-12 -11 -10 0 -13 -3 -5 -6 6 -2 12 -9 12 -14 0 -6 -4 -8 -9 -4 -5 3 -12 1
-16 -5 -3 -5 -1 -10 5 -10 6 0 3 -11 -7 -24 -10 -13 -21 -22 -25 -20 -13 8 -1
-28 13 -37 12 -7 11 -9 -3 -9 -10 0 -15 -7 -13 -17 1 -10 -2 -23 -7 -30 -5 -7
-6 -18 -2 -25 6 -10 5 -10 -7 -1 -12 9 -14 6 -16 -22 -1 -19 -10 -49 -20 -67
-17 -32 -19 -38 -22 -65 0 -7 -8 -13 -16 -13 -17 0 -51 -67 -47 -92 3 -18 -12
-25 -21 -10 -2 4 -2 1 -1 -5 2 -7 -9 -21 -24 -30 -33 -21 -56 -43 -46 -43 4 0
17 8 28 18 16 13 18 13 8 1 -6 -9 -9 -19 -5 -22 3 -4 1 -7 -6 -7 -7 0 -9 -4
-6 -10 3 -5 -3 -10 -14 -10 -22 0 -29 -26 -9 -32 7 -3 5 -7 -6 -11 -9 -4 -15
-3 -11 2 3 5 1 12 -5 16 -5 3 -10 1 -10 -5 0 -6 -4 -9 -9 -6 -5 4 -7 -4 -3
-16 5 -21 4 -22 -13 -8 -17 14 -18 14 -6 -7 10 -20 9 -22 -6 -16 -17 7 -17 6
-1 -19 16 -25 16 -26 -10 -38 -15 -8 -31 -13 -35 -11 -5 1 -6 -3 -3 -8 8 -12
-18 -33 -29 -23 -4 4 -3 -3 4 -15 15 -29 14 -31 -6 -29 -13 1 -18 -6 -17 -21
1 -13 -3 -20 -7 -17 -5 3 -7 10 -4 15 4 5 1 9 -4 9 -6 0 -11 -7 -11 -15 0 -8
-5 -15 -11 -15 -5 0 -7 -6 -3 -12 5 -10 4 -10 -6 -1 -11 10 -11 15 1 30 13 17
13 17 -4 4 -10 -8 -16 -20 -13 -27 3 -7 -3 -18 -12 -26 -13 -11 -14 -11 -7 1
6 10 4 12 -4 6 -9 -5 -10 -10 -2 -18 6 -6 11 -16 11 -21 0 -6 -4 -4 -10 4 -11
18 -18 12 -24 -21 -2 -13 -9 -23 -15 -22 -6 2 -11 -1 -11 -6 0 -6 -9 -8 -21
-6 -16 3 -18 1 -10 -9 15 -18 3 -26 -24 -16 -18 7 -27 5 -37 -8 -11 -15 -11
-15 2 -6 9 7 23 8 35 3 23 -9 22 -9 -24 -16 -19 -2 -40 -11 -48 -19 -18 -17
-3 -19 17 -1 8 6 4 -1 -10 -18 -14 -16 -26 -32 -28 -34 -1 -3 -8 1 -15 9 -10
10 -9 11 2 5 9 -5 12 -4 7 3 -11 18 -34 14 -32 -5 0 -10 -5 -17 -11 -16 -7 2
-13 -3 -13 -10 0 -7 -7 -4 -15 7 -8 11 -15 14 -15 7 0 -7 -5 -9 -12 -5 -7 4
-8 3 -4 -5 4 -6 12 -9 17 -6 5 4 9 3 10 -2 0 -4 2 -15 4 -23 2 -11 -5 -16 -21
-16 -13 0 -20 4 -17 11 4 5 -6 -1 -20 -14 -16 -15 -34 -22 -46 -18 -14 3 -18
1 -14 -11 5 -12 1 -14 -20 -8 -27 6 -47 -8 -25 -18 7 -3 2 -4 -12 -3 -14 1
-24 -3 -23 -10 2 -7 -14 -11 -46 -10 -42 2 -48 0 -38 -12 9 -12 9 -13 0 -7 -8
4 -13 2 -13 -6 0 -8 -4 -6 -11 4 -9 17 -11 17 -37 0 -14 -9 -23 -11 -19 -4 5
6 4 12 -2 12 -6 0 -11 -4 -11 -9 0 -5 -15 -11 -34 -13 -23 -2 -32 0 -29 8 2 6
-7 14 -21 16 -18 4 -24 1 -21 -11 2 -13 -5 -17 -32 -18 -25 0 -33 3 -29 13 3
8 1 14 -5 14 -6 0 -7 5 -4 11 4 6 -3 5 -14 -3 -18 -11 -23 -11 -31 2 -6 9 -10
10 -10 3 0 -7 9 -17 20 -23 15 -8 20 -8 20 1 0 7 2 10 5 7 3 -3 3 -12 -1 -21
-6 -18 -10 -15 -61 33 -15 14 -21 17 -14 8 11 -15 11 -18 -3 -18 -9 0 -16 5
-16 12 0 6 -3 8 -7 5 -3 -4 -12 -2 -20 5 -11 9 -12 7 -7 -7 5 -13 4 -16 -4
-11 -7 4 -12 15 -12 24 0 15 -2 15 -10 2 -8 -12 -10 -12 -10 5 0 16 -2 17 -10
5 -5 -8 -12 -11 -16 -7 -4 4 -14 1 -23 -6 -14 -11 -14 -10 -2 5 7 10 18 15 25
11 6 -3 8 -3 4 2 -4 4 -3 14 3 22 9 9 8 13 0 13 -6 0 -11 -5 -11 -11 0 -6 -6
-9 -13 -6 -7 3 -19 -4 -25 -14 -7 -10 -18 -19 -25 -19 -6 0 -4 5 6 11 9 5 17
15 17 21 0 6 -3 9 -6 5 -9 -8 -35 20 -38 41 -2 9 -9 17 -17 17 -8 1 -13 6 -12
11 1 6 -5 11 -13 11 -11 0 -11 -4 3 -19 10 -12 12 -18 4 -18 -7 0 -9 -5 -5
-12 4 -7 -3 -3 -15 10 -12 12 -32 22 -44 23 -21 0 -21 1 -2 8 12 5 23 4 27 -3
5 -7 8 -7 8 0 0 17 -22 33 -38 27 -11 -5 -13 -3 -7 8 7 11 6 12 -6 2 -18 -15
-41 1 -32 23 3 8 0 14 -7 14 -6 0 -9 4 -6 8 3 5 -1 9 -8 9 -8 0 -12 -6 -9 -14
3 -7 1 -13 -5 -13 -14 0 -9 30 7 39 9 6 8 10 -6 16 -10 5 -20 9 -23 10 -3 2
-15 6 -27 10 -13 4 -21 10 -19 14 3 4 0 13 -6 21 -8 12 -9 12 -4 -2 3 -10 1
-18 -3 -18 -14 0 -20 27 -9 38 16 16 -16 9 -36 -7 -14 -12 -16 -12 -10 2 4 12
1 15 -15 12 -12 -2 -19 0 -16 5 3 5 14 7 25 5 11 -2 22 1 26 6 3 5 1 8 -5 7
-5 -2 -17 6 -26 17 -9 11 -14 14 -10 8 3 -7 1 -13 -4 -13 -6 0 -11 7 -11 15 0
8 5 15 11 15 5 0 8 4 5 9 -3 4 -17 6 -31 3 -18 -3 -25 0 -25 11 0 8 6 18 13
20 9 4 9 6 -1 6 -7 1 -10 6 -6 13 5 7 2 9 -9 5 -9 -3 -21 1 -29 11 -9 11 -10
14 0 8 7 -4 12 -2 12 5 0 6 -8 9 -19 6 -19 -4 -22 7 -9 28 4 6 2 17 -4 25 -8
12 -9 11 -4 -5 6 -19 5 -19 -8 -2 -7 9 -18 17 -23 17 -5 0 -10 7 -10 15 0 8 5
15 11 15 6 0 4 5 -4 10 -11 7 -19 5 -27 -7 -7 -9 -13 -13 -13 -8 0 5 8 17 17
27 10 11 13 19 8 18 -24 -5 -37 1 -32 14 4 10 1 13 -8 10 -7 -3 -18 4 -24 15
-14 25 -14 34 -1 26 6 -3 7 1 4 9 -3 9 -10 17 -15 17 -5 1 -13 2 -18 3 -22 3
-20 14 2 12 18 -2 24 1 20 10 -3 8 -9 11 -14 8 -5 -3 -9 0 -9 7 0 7 -8 9 -21
6 -15 -4 -19 -3 -12 4 14 14 5 49 -12 49 -7 0 -16 7 -19 16 -9 24 -7 31 4 14
6 -9 10 -10 10 -3 0 6 -5 15 -10 18 -6 4 -7 12 -4 18 4 7 4 9 -1 5 -13 -12
-35 12 -28 29 4 9 2 14 -3 10 -6 -3 -11 4 -11 16 -2 17 0 19 7 7 5 -8 10 -10
10 -4 0 6 -11 21 -25 34 -14 13 -25 28 -25 34 0 6 5 4 10 -4 8 -12 9 -9 8 12
-2 22 -5 25 -20 17 -10 -6 -16 -14 -13 -19 3 -5 1 -11 -4 -15 -6 -3 -8 3 -6
15 2 11 -1 22 -6 25 -5 4 -7 11 -3 16 3 5 9 7 14 4 5 -3 12 0 16 6 4 8 3 9 -4
5 -7 -4 -12 -1 -12 9 0 9 -5 13 -10 10 -7 -4 -9 3 -6 19 3 17 1 24 -6 20 -7
-5 -9 2 -6 19 3 16 0 28 -8 31 -9 3 -11 -1 -7 -12 7 -18 5 -17 -17 11 -10 14
-11 17 0 15 7 -2 15 3 17 10 3 6 0 12 -7 12 -6 0 -8 5 -5 10 3 6 -2 10 -11 10
-16 0 -15 2 2 22 10 12 14 18 7 15 -10 -7 -25 19 -28 48 0 6 -7 9 -14 7 -7 -1
-10 2 -6 8 5 8 11 8 21 -1 7 -6 12 -15 9 -19 -3 -5 0 -12 7 -16 7 -4 10 -4 6
1 -4 4 -3 14 3 22 11 13 10 14 -11 17 -5 0 -10 6 -11 11 0 6 -5 16 -11 23 -7
8 -7 17 2 28 11 12 11 15 -1 12 -8 -2 -13 3 -11 11 2 8 -3 11 -11 8 -9 -3 -13
5 -14 27 -2 53 -3 57 -13 51 -5 -3 -10 1 -10 10 0 10 5 14 13 9 10 -6 10 -4 0
7 -20 20 -15 31 7 19 24 -13 26 -7 4 15 -13 13 -19 13 -33 3 -14 -11 -14 -11
-5 2 7 9 8 23 3 35 -11 28 -11 54 -1 37 5 -7 8 8 8 37 -1 27 -5 53 -10 58 -5
4 -6 3 -3 -3 3 -6 0 -11 -7 -11 -8 0 -12 6 -9 14 3 7 -1 21 -8 31 -10 12 -7
12 10 -3 14 -11 21 -13 16 -5 -5 8 -9 32 -9 55 l-1 40 -1858 3 -1857 2 0
-5120z m3710 5079 c0 -4 -7 -6 -15 -3 -8 4 -15 10 -15 15 0 4 7 6 15 3 8 -4
15 -10 15 -15z m17 -134 c0 -8 -4 -12 -9 -9 -5 3 -6 10 -3 15 9 13 12 11 12
-6z m57 -296 c-3 -5 -10 -7 -15 -3 -5 3 -7 10 -3 15 3 5 10 7 15 3 5 -3 7 -10
3 -15z m11 -29 c3 -5 1 -10 -4 -10 -6 0 -11 5 -11 10 0 6 2 10 4 10 3 0 8 -4
11 -10z m2471 -228 c-17 -16 -18 -16 -5 5 7 12 15 20 18 17 3 -2 -3 -12 -13
-22z m-2291 -271 c3 -5 0 -13 -6 -17 -7 -4 -9 -3 -5 4 3 5 0 13 -6 15 -9 4
-10 6 -1 6 6 1 14 -3 18 -8z m2159 -60 c3 -5 -1 -11 -9 -14 -9 -4 -12 -1 -8 9
6 16 10 17 17 5z m-220 -326 c-9 -14 -21 -25 -27 -25 -6 0 0 11 13 25 13 14
25 25 27 25 2 0 -4 -11 -13 -25z m-1472 -230 c3 0 9 -3 13 -7 4 -3 -1 -5 -12
-4 -10 2 -28 -1 -41 -5 -15 -6 -21 -5 -17 1 3 6 13 10 21 10 9 0 12 5 8 12 -5
7 -3 8 7 2 8 -5 17 -9 21 -9z m195 -150 c0 -8 -4 -12 -9 -9 -5 3 -6 10 -3 15
9 13 12 11 12 -6z m213 -120 c23 14 8 -4 -17 -21 -20 -12 -24 -13 -16 -3 10
12 10 18 0 29 -10 12 -9 12 5 1 9 -7 22 -10 28 -6z m-911 -1003 c30 -48 156
-256 281 -462 125 -206 271 -447 325 -535 54 -88 104 -171 112 -185 l15 -25
-19 25 c-10 13 -25 32 -35 41 -9 10 -14 20 -12 23 2 4 -1 2 -7 -3 -7 -6 -8
-15 -1 -27 5 -11 7 -24 5 -30 -2 -7 6 -29 18 -50 18 -33 18 -36 3 -24 -13 11
-11 3 8 -30 15 -25 122 -213 239 -417 117 -205 216 -373 220 -373 3 0 12 14
20 31 11 28 10 36 -4 61 -9 16 -17 36 -17 43 0 7 22 51 49 97 27 46 140 241
251 433 291 501 592 1016 743 1268 l131 217 411 0 c227 0 676 3 998 7 384 4
587 3 587 -4 0 -5 -20 -41 -44 -79 -175 -278 -849 -1361 -961 -1544 -375 -613
-588 -956 -598 -965 -6 -5 -4 1 5 15 8 14 48 81 88 150 40 69 113 192 163 275
50 82 90 155 90 162 0 6 5 11 10 10 5 -1 12 4 15 12 3 9 0 11 -8 6 -9 -5 -11
-4 -6 4 4 6 11 9 14 7 4 -2 15 10 25 27 l17 32 -20 -24 c-26 -30 -25 -21 1 23
21 37 36 48 25 21 -3 -8 -4 -15 -2 -15 6 0 66 96 66 106 0 5 -12 -10 -25 -33
-15 -24 -31 -40 -38 -37 -20 7 -48 -25 -117 -140 -36 -59 -84 -130 -106 -156
-23 -27 -89 -127 -148 -224 -59 -97 -110 -176 -112 -176 -6 0 13 36 36 70 32
47 81 143 75 148 -3 3 -5 1 -5 -5 0 -6 -15 -27 -34 -47 -19 -20 -32 -36 -28
-36 4 0 2 -4 -3 -8 -6 -4 -17 -20 -25 -37 -8 -16 -25 -44 -37 -61 -13 -17 -21
-33 -19 -35 2 -2 -46 -60 -107 -128 -90 -99 -126 -132 -182 -163 -38 -22 -97
-65 -130 -97 -33 -32 -76 -70 -95 -85 -19 -16 -57 -49 -85 -75 -44 -41 -74
-62 -96 -65 -4 -1 -33 -37 -66 -82 -56 -74 -131 -149 -141 -139 -18 18 236
405 361 551 69 81 97 117 97 127 0 9 85 136 126 188 16 20 40 51 54 69 30 40
108 140 152 193 17 21 49 66 71 100 22 34 59 88 83 119 24 31 44 59 44 62 0 8
56 83 110 147 45 53 45 53 -58 -30 -265 -213 -508 -464 -784 -807 -146 -181
-151 -189 -606 -924 -106 -171 -153 -240 -122 -180 12 22 12 24 -2 12 -14 -11
-15 -9 -14 17 1 16 5 33 10 38 5 5 6 2 1 -6 -5 -10 -4 -12 4 -7 6 4 9 11 6 16
-6 10 225 401 625 1055 300 491 396 650 610 1005 355 589 478 785 490 782 7
-1 8 3 4 9 -4 7 1 18 10 25 10 7 17 15 17 18 -1 3 2 6 5 5 3 -1 19 12 35 27
16 15 29 24 29 19 0 -5 7 0 16 11 17 21 -11 -33 -41 -79 -9 -15 -15 -27 -12
-27 5 0 211 307 241 357 18 32 -315 -139 -572 -293 -516 -310 -886 -622 -1125
-948 -159 -217 -301 -471 -397 -714 l-33 -82 -24 72 c-13 40 -49 124 -78 187
-30 62 -52 117 -49 122 3 5 0 8 -8 7 -7 -2 -12 5 -11 15 0 10 -2 16 -5 12 -9
-9 -63 85 -56 98 4 7 4 9 -1 5 -4 -4 -35 32 -68 80 -110 158 -168 225 -375
431 -113 113 -200 201 -193 197 16 -10 6 89 -16 149 -7 22 -16 51 -19 64 -6
30 -41 98 -54 106 -6 4 -8 10 -5 14 4 7 -131 143 -181 182 -16 12 -49 16 -154
17 -115 1 -135 -1 -147 -16 -8 -9 -12 -12 -9 -6 3 6 -2 11 -11 11 -11 0 -5 -9
17 -26 61 -46 268 -219 274 -229 14 -24 -26 -2 -119 65 -139 99 -269 179 -490
303 -254 142 -354 203 -349 212 3 5 1 8 -5 8 -18 0 -82 48 -69 52 6 2 12 12
14 21 1 9 -2 15 -7 11 -5 -3 -9 4 -9 16 0 13 -4 19 -11 14 -8 -4 -9 1 -4 17 4
13 4 21 0 17 -4 -4 -16 10 -27 31 -23 47 -73 71 -137 67 -23 -2 -44 1 -47 6
-3 4 -12 8 -20 8 -10 0 -12 -5 -8 -12 5 -8 0 -7 -11 2 -11 9 -16 10 -11 3 4
-8 1 -13 -9 -13 -9 0 -13 5 -9 11 4 8 0 8 -15 0 -11 -7 -21 -8 -21 -3 0 6 -9
12 -21 15 -12 3 -18 10 -15 16 4 5 1 13 -5 17 -8 4 -9 3 -5 -4 4 -7 1 -12 -8
-12 -9 0 -16 5 -16 11 0 6 -9 8 -20 4 -12 -4 -28 -1 -38 7 -15 11 -16 11 -4
-3 11 -14 9 -17 -10 -23 -18 -5 -20 -8 -9 -15 8 -5 21 -6 30 -3 13 5 13 3 -2
-12 -17 -17 -12 -29 124 -294 133 -260 389 -741 589 -1107 134 -247 194 -361
183 -350 -12 12 -229 400 -326 585 -386 731 -622 1168 -629 1163 -4 -2 -5 3
-2 11 3 9 1 16 -5 16 -6 0 -11 7 -11 15 0 8 -4 15 -10 15 -5 0 -9 3 -9 8 4 25
-2 42 -13 36 -10 -5 -10 -4 -2 5 12 13 47 4 39 -9 -3 -5 0 -12 6 -16 7 -4 9
-3 6 3 -7 11 14 24 36 22 7 0 3 -4 -7 -8 -19 -7 -19 -8 2 -13 13 -4 20 -2 19
6 -1 7 23 12 73 14 43 2 77 8 82 15 9 14 -11 39 -26 31 -6 -3 -3 1 7 9 16 13
16 15 1 21 -29 11 -614 7 -614 -5 0 -5 5 -7 12 -3 7 4 8 3 4 -4 -4 -7 17 -48
47 -95 29 -45 95 -149 146 -232 146 -238 377 -596 504 -779 242 -348 419 -631
832 -1331 65 -110 139 -234 163 -275 25 -41 45 -83 44 -93 0 -9 4 -15 9 -11 5
3 8 2 7 -3 -1 -4 6 -23 15 -40 58 -108 -29 25 -493 757 -297 468 -587 932
-961 1535 -95 154 -217 351 -271 438 -54 87 -98 160 -98 163 0 6 316 9 1175
12 l810 2 54 -88z m-953 -434 c9 -18 49 -82 89 -143 40 -60 116 -181 170 -267
53 -87 99 -158 102 -158 2 0 1 4 -2 10 -3 5 -8 19 -10 30 -3 15 2 20 17 20 19
0 19 2 6 23 -38 60 -59 97 -55 97 6 0 87 -124 87 -134 0 -4 -6 -4 -12 0 -8 4
-10 3 -5 -2 5 -5 13 -9 19 -9 9 0 390 -614 805 -1295 86 -140 190 -311 233
-380 42 -69 79 -130 83 -136 3 -6 0 -11 -8 -11 -8 0 -12 4 -9 9 3 4 0 8 -6 8
-6 0 -8 5 -4 12 4 6 3 8 -3 5 -12 -7 -5 -55 9 -74 5 -7 7 -16 5 -21 -3 -4 -1
-14 5 -22 8 -12 9 -12 4 3 -3 10 -2 16 3 13 14 -9 21 -47 8 -40 -7 3 -4 -1 6
-9 10 -9 18 -18 18 -21 -3 -21 0 -26 10 -20 7 4 10 1 7 -7 -3 -8 6 -30 18 -51
13 -20 49 -83 80 -140 31 -56 125 -220 209 -363 83 -143 169 -290 190 -327 22
-38 45 -68 52 -68 14 0 91 70 308 280 236 230 286 275 684 620 124 107 242
210 262 228 l38 33 -15 -38 c-9 -21 -38 -74 -64 -118 -39 -66 -231 -400 -301
-523 -11 -18 -14 -30 -8 -27 6 4 3 -7 -6 -25 -9 -18 -12 -29 -5 -25 7 4 6 -6
-4 -28 -8 -20 -12 -38 -9 -41 3 -3 0 -12 -7 -21 -7 -8 -10 -15 -6 -15 12 0 56
81 50 92 -4 6 -3 8 3 5 6 -4 53 63 108 153 53 88 99 160 102 160 3 0 -1 -10
-9 -22 -53 -82 -692 -1161 -888 -1498 -186 -320 -226 -385 -236 -384 -5 1 -86
129 -179 285 -94 156 -264 438 -378 627 -114 189 -205 347 -202 352 3 5 1 20
-6 32 -12 23 -12 23 9 5 20 -18 20 -18 18 5 -7 59 -21 99 -63 178 -59 109 -46
97 27 -25 31 -52 60 -92 64 -88 4 4 4 0 1 -9 -4 -9 -1 -19 6 -24 8 -5 10 -3 4
7 -5 8 0 7 12 -4 11 -9 23 -14 26 -11 4 4 9 -1 13 -10 3 -9 10 -13 15 -10 5 3
9 0 9 -6 0 -7 10 -25 23 -40 12 -15 27 -36 34 -46 10 -16 12 -16 7 -1 -4 11
-1 17 8 17 7 0 29 13 48 30 19 16 40 29 47 30 7 0 17 8 22 18 6 9 11 13 11 8
0 -6 13 3 29 18 35 33 36 28 -54 231 -122 275 -195 469 -198 528 -1 15 -4 27
-7 27 -3 0 -6 8 -7 18 -1 9 -8 36 -16 60 -8 23 -13 42 -12 42 4 0 138 -243
175 -318 17 -34 33 -62 36 -62 3 0 2 5 -2 12 -5 7 -3 8 5 4 7 -5 10 -15 7 -23
-4 -9 -2 -11 6 -7 8 5 9 2 5 -10 -4 -9 -3 -15 2 -11 6 3 14 -3 20 -12 10 -17
10 -16 7 2 -10 59 -45 127 -256 495 -199 345 -489 826 -699 1160 -112 179
-229 366 -259 415 -30 50 -67 109 -83 132 -31 44 -36 59 -17 47 7 -4 8 -3 4 5
-4 6 -11 9 -16 6 -5 -3 -57 72 -115 167 -59 95 -126 202 -150 238 -78 120
-125 197 -125 204 0 14 11 4 26 -26z m372 -1503 c-3 -3 -9 2 -12 12 -6 14 -5
15 5 6 7 -7 10 -15 7 -18z m1203 -920 l10 -20 -16 20 c-9 11 -21 29 -26 40
l-10 20 16 -20 c9 -11 21 -29 26 -40z m-801 -25 c6 -11 8 -20 6 -20 -3 0 -10
9 -16 20 -6 11 -8 20 -6 20 3 0 10 -9 16 -20z m2500 -280 c-6 -11 -13 -20 -16
-20 -2 0 0 9 6 20 6 11 13 20 16 20 2 0 0 -9 -6 -20z m-1457 -204 c15 -28 19
-40 10 -27 -10 14 -30 47 -46 75 -15 28 -19 40 -10 27 10 -14 30 -47 46 -75z
m-494 -406 c30 -48 40 -74 22 -54 -14 15 -63 104 -58 104 3 0 19 -23 36 -50z"/>
<path d="M8177 7423 c-48 -3 -67 -8 -64 -16 2 -7 13 -13 25 -15 20 -3 19 -6
-13 -33 -18 -17 -52 -62 -73 -102 -37 -67 -184 -310 -446 -735 -60 -97 -103
-178 -100 -185 4 -7 4 -9 -1 -5 -11 11 -38 -29 -29 -44 4 -6 3 -8 -3 -5 -5 3
-18 -8 -28 -25 -10 -17 -13 -28 -7 -24 8 5 10 2 6 -8 -3 -9 -10 -14 -15 -11
-4 3 -13 -4 -19 -16 -10 -17 -9 -20 2 -14 7 3 5 0 -4 -7 -11 -9 -14 -19 -8
-28 6 -9 0 -24 -16 -43 -19 -23 -22 -32 -13 -43 12 -14 6 -28 -12 -30 -5 -1
-13 -2 -19 -3 -5 0 -21 -21 -36 -46 -14 -25 -33 -49 -42 -55 -12 -7 -13 -9 -3
-10 11 0 10 -5 -3 -25 -9 -14 -23 -37 -32 -52 -16 -27 -16 -27 10 2 29 34 35
23 8 -16 -9 -14 -22 -24 -28 -22 -6 2 -19 -8 -28 -22 -9 -14 -12 -25 -7 -25 5
0 12 7 15 16 4 9 9 14 12 11 9 -8 -16 -48 -26 -42 -5 3 -12 0 -16 -6 -5 -8 -3
-9 6 -4 10 6 12 4 7 -8 -3 -10 -5 -17 -3 -17 3 0 98 150 280 443 38 60 64 112
60 119 -4 7 -3 8 4 4 12 -7 36 29 28 43 -3 4 1 17 10 27 14 18 14 17 3 -6 -24
-52 12 1 118 170 60 96 204 326 319 510 232 371 257 411 252 408 -2 -1 -34 -3
-71 -5z m24 -56 c-10 -9 -11 -8 -5 6 3 10 9 15 12 12 3 -3 0 -11 -7 -18z
m-727 -1164 c-10 -16 -33 -54 -52 -85 -19 -32 -39 -55 -44 -52 -5 4 -1 15 10
28 10 11 36 47 56 79 21 31 40 57 43 57 3 0 -3 -12 -13 -27z m-160 -257 c-26
-42 -49 -74 -51 -72 -2 2 18 38 44 79 26 42 49 74 51 72 2 -2 -17 -38 -44 -79z"/>
<path d="M7840 7341 c0 -7 -6 -11 -14 -8 -8 3 -17 -1 -20 -9 -3 -9 -10 -13
-16 -9 -5 3 -18 -3 -29 -14 -11 -11 -21 -17 -24 -15 -2 2 -15 -6 -29 -18 -14
-13 -31 -24 -38 -26 -19 -4 -70 -42 -70 -51 0 -4 -6 -8 -13 -8 -20 0 -71 -37
-57 -41 7 -3 15 -1 19 4 3 5 12 10 20 12 7 2 33 16 56 32 23 16 46 26 50 22 5
-4 6 0 2 9 -4 13 -1 16 14 12 16 -5 9 -13 -38 -50 -75 -58 -77 -60 -56 -60 10
0 21 5 25 11 6 8 8 8 8 0 0 -7 10 -9 25 -6 14 2 22 9 18 15 -4 6 -1 7 8 1 21
-13 58 -13 53 0 -3 7 3 20 12 31 8 11 13 14 9 8 -3 -7 -4 -13 -1 -13 3 0 13
15 21 33 14 28 14 30 0 13 -21 -28 -19 -13 6 28 20 34 38 51 24 24 -4 -7 1 -4
9 6 19 23 21 40 4 30 -7 -4 -8 -3 -4 5 4 6 11 9 16 6 9 -6 23 25 15 33 -3 3
-5 0 -5 -7z"/>
<path d="M7880 7338 c0 -5 -4 -7 -8 -4 -5 3 -18 -15 -30 -40 -13 -25 -18 -43
-13 -40 5 3 8 -2 7 -12 0 -9 5 -16 12 -14 8 1 11 -2 7 -8 -5 -8 -12 -6 -24 4
-15 14 -18 13 -29 -4 -6 -11 -9 -27 -5 -36 4 -11 3 -15 -5 -10 -6 3 -13 2 -17
-3 -10 -18 30 -3 71 24 21 15 38 31 36 36 -1 5 5 12 14 16 8 3 20 17 25 30 6
17 13 22 22 16 20 -14 45 -9 62 12 9 12 13 14 10 5 -4 -12 1 -16 20 -16 17 0
24 4 20 14 -2 7 -1 10 5 7 5 -3 14 4 20 15 11 21 10 21 -94 19 -58 -1 -106 -6
-106 -11z m157 -30 c-3 -8 -6 -5 -6 6 -1 11 2 17 5 13 3 -3 4 -12 1 -19z
m-186 -31 c-10 -9 -11 -8 -5 6 3 10 9 15 12 12 3 -3 0 -11 -7 -18z m-27 -65
c3 -5 -1 -9 -9 -9 -8 0 -12 4 -9 9 3 4 7 8 9 8 2 0 6 -4 9 -8z"/>
<path d="M7360 7330 c-139 -5 -148 -6 -205 -36 -355 -186 -659 -414 -935 -700
l-95 -99 85 83 c47 45 90 82 96 82 16 0 95 85 87 94 -4 4 0 4 8 1 10 -4 33 12
66 48 28 29 54 52 60 50 5 -2 22 10 38 27 16 16 34 30 39 30 23 1 69 48 60 61
-6 12 -5 12 8 1 12 -10 18 -9 28 3 7 8 37 30 67 47 30 18 68 41 84 50 16 10
31 18 34 18 3 0 12 0 21 0 8 0 13 4 10 8 -3 5 1 9 8 9 7 0 35 10 62 22 27 13
58 26 69 30 55 21 126 45 175 59 30 9 57 19 60 22 3 4 34 7 69 8 34 1 79 6
100 11 70 17 102 21 96 11 -4 -7 2 -7 17 -1 42 17 63 24 73 25 17 2 75 31 75
38 0 7 -120 6 -360 -2z m-870 -494 c0 -2 -8 -10 -17 -17 -16 -13 -17 -12 -4 4
13 16 21 21 21 13z m-150 -140 c0 -2 -8 -10 -17 -17 -16 -13 -17 -12 -4 4 13
16 21 21 21 13z"/>
<path d="M2600 7278 c0 -5 15 -8 33 -8 25 0 29 -3 17 -11 -13 -9 -13 -10 0 -6
8 2 14 11 12 18 -3 11 -1 12 9 2 7 -7 22 -12 34 -12 18 1 18 2 1 6 -15 4 -16
7 -5 14 9 5 -7 8 -43 6 -32 -1 -58 -5 -58 -9z"/>
<path d="M6064 6428 l-19 -23 23 19 c21 18 27 26 19 26 -2 0 -12 -10 -23 -22z"/>
<path d="M5819 6123 c-13 -16 -12 -17 4 -4 16 13 21 21 13 21 -2 0 -10 -8 -17
-17z"/>
<path d="M4230 6116 c0 -2 8 -10 18 -17 15 -13 16 -12 3 4 -13 16 -21 21 -21
13z"/>
<path d="M4573 6096 c0 -30 12 -42 23 -25 5 8 3 9 -6 4 -9 -6 -12 -4 -8 7 4 8
3 21 -2 27 -5 9 -7 4 -7 -13z"/>
<path d="M5759 6043 c-23 -32 -36 -53 -28 -46 17 14 83 103 76 103 -3 0 -24
-26 -48 -57z"/>
<path d="M4490 6046 c0 -2 8 -10 18 -17 15 -13 16 -12 3 4 -13 16 -21 21 -21
13z"/>
<path d="M4606 6032 c-3 -5 1 -9 9 -9 8 0 12 4 9 9 -3 4 -7 8 -9 8 -2 0 -6 -4
-9 -8z"/>
<path d="M4565 6021 c-3 -5 -1 -12 5 -16 5 -3 10 -13 10 -22 0 -12 -3 -13 -13
-4 -29 23 -25 -4 6 -48 18 -25 63 -98 100 -162 62 -109 107 -167 107 -141 0 7
-4 12 -8 12 -5 0 -8 14 -7 30 1 17 -4 35 -11 41 -8 6 -11 15 -9 20 3 4 -7 28
-22 51 -36 57 -53 88 -47 89 2 1 8 2 13 3 5 0 13 5 18 10 4 5 3 6 -3 3 -6 -4
-21 5 -34 18 -19 20 -21 27 -11 39 11 13 10 15 -6 12 -11 -3 -25 4 -32 16 -10
16 -10 19 1 12 22 -14 37 -13 31 3 -5 12 -7 12 -14 2 -6 -10 -10 -9 -15 5 -5
13 -9 14 -14 5 -6 -9 -12 -9 -24 4 -12 11 -13 17 -3 20 9 4 9 6 0 6 -6 1 -14
-3 -18 -8z m15 -56 c0 4 6 2 13 -4 8 -6 17 -7 21 -3 4 4 7 3 6 -3 -5 -22 1
-27 18 -14 15 12 16 12 6 -1 -6 -8 -10 -25 -8 -37 2 -12 -1 -25 -6 -28 -6 -4
-7 1 -3 11 4 11 3 15 -5 10 -6 -4 -24 13 -43 41 -18 27 -25 42 -16 34 9 -7 17
-10 17 -6z m95 -75 c3 -6 -1 -7 -9 -4 -18 7 -21 14 -7 14 6 0 13 -4 16 -10z
m-27 -55 c-3 -3 -9 2 -12 12 -6 14 -5 15 5 6 7 -7 10 -15 7 -18z"/>
<path d="M4600 5920 c6 -11 15 -18 21 -14 6 4 6 11 -2 20 -17 21 -31 17 -19
-6z"/>
<path d="M4526 6011 c-4 -5 -2 -12 3 -15 5 -4 12 -2 15 3 4 5 2 12 -3 15 -5 4
-12 2 -15 -3z"/>
<path d="M4666 5932 c-3 -5 1 -9 9 -9 8 0 12 4 9 9 -3 4 -7 8 -9 8 -2 0 -6 -4
-9 -8z"/>
<path d="M4760 5783 c0 -7 4 -14 10 -18 5 -3 7 -12 3 -20 -3 -8 -3 -15 0 -15
13 0 13 28 1 45 -8 10 -14 14 -14 8z"/>
<path d="M5326 5723 c-6 -14 -5 -15 5 -6 7 7 10 15 7 18 -3 3 -9 -2 -12 -12z"/>
<path d="M6466 5703 c-6 -14 -5 -15 5 -6 7 7 10 15 7 18 -3 3 -9 -2 -12 -12z"/>
<path d="M4806 5691 c-4 -5 -2 -12 3 -15 5 -4 12 -2 15 3 4 5 2 12 -3 15 -5 4
-12 2 -15 -3z"/>
<path d="M5247 5583 c-85 -152 -98 -180 -82 -180 7 0 11 6 8 12 -3 11 16 13
48 6 4 0 5 -20 3 -43 -2 -22 -2 -39 1 -37 2 3 18 40 35 83 18 44 47 113 66
154 37 81 33 122 -5 47 -25 -50 -32 -57 -48 -47 -8 5 -7 14 3 32 15 25 15 25
8 1 -4 -14 -2 -21 4 -17 5 3 12 15 15 26 3 11 1 18 -4 14 -12 -7 -11 3 1 27 6
10 9 19 6 19 -2 0 -29 -44 -59 -97z"/>
<path d="M6425 5635 c-14 -25 -23 -50 -19 -57 4 -7 3 -8 -4 -4 -12 7 -36 -30
-27 -44 3 -5 0 -12 -6 -16 -8 -5 -9 -3 -4 7 5 9 5 11 -2 4 -6 -5 -52 -80 -103
-165 -111 -186 -102 -170 -97 -170 2 0 28 38 57 86 29 47 54 83 57 80 8 -8 92
117 150 223 17 31 16 36 -4 20 -15 -13 -15 -12 -4 9 7 12 17 20 23 16 7 -4 8
-3 4 4 -4 6 -2 21 4 32 21 39 2 19 -25 -25z"/>
<path d="M4865 5591 c-6 -11 13 -26 22 -17 4 3 1 6 -6 6 -7 0 -9 5 -6 10 3 6
4 10 1 10 -3 0 -7 -4 -11 -9z"/>
<path d="M4885 5550 c-4 -6 -11 -7 -17 -4 -7 4 -8 2 -4 -5 6 -9 11 -9 22 0 14
11 18 19 10 19 -3 0 -8 -5 -11 -10z"/>
<path d="M4913 5505 c0 -8 5 -15 10 -15 5 0 7 -7 3 -15 -3 -9 3 -20 14 -27 11
-7 20 -16 20 -21 0 -4 -4 -6 -8 -3 -5 3 -9 -1 -9 -8 0 -12 8 -13 35 -7 4 1
-46 91 -58 104 -4 4 -7 1 -7 -8z"/>
<path d="M5136 5375 c-3 -9 -6 -22 -5 -28 0 -7 5 -1 10 12 5 13 8 26 5 28 -2
2 -6 -3 -10 -12z"/>
<path d="M4985 5370 c-5 -8 -4 -11 2 -7 13 8 26 -20 16 -35 -3 -7 -1 -8 5 -4
15 9 15 18 -1 41 -11 14 -16 15 -22 5z"/>
<path d="M4661 4047 c-1 -10 38 -87 44 -87 3 0 -2 14 -10 30 -9 17 -13 36 -9
42 4 6 3 8 -4 4 -5 -3 -13 0 -15 6 -3 7 -6 9 -6 5z"/>
<path d="M4736 3877 c3 -10 9 -15 12 -12 3 3 0 11 -7 18 -10 9 -11 8 -5 -6z"/>
<path d="M4756 3837 c3 -10 9 -15 12 -12 3 3 0 11 -7 18 -10 9 -11 8 -5 -6z"/>
<path d="M4820 3685 c0 -5 5 -17 10 -25 5 -8 10 -10 10 -5 0 6 -5 17 -10 25
-5 8 -10 11 -10 5z"/>
<path d="M5043 3059 c-7 -7 -6 -33 4 -87 8 -42 23 -122 33 -177 l17 -100 16
75 c56 262 61 316 25 294 -7 -5 -19 -9 -27 -11 -8 -1 -25 -4 -38 -8 -13 -3
-23 -1 -23 5 0 6 5 8 12 4 7 -4 8 -3 4 4 -9 15 -9 15 -23 1z"/>
<path d="M6425 10191 c-3 -5 -2 -12 3 -15 5 -3 9 1 9 9 0 17 -3 19 -12 6z"/>
<path d="M6165 9319 c0 -34 1 -35 14 -10 8 14 7 22 -2 29 -10 9 -13 4 -12 -19z"/>
<path d="M6125 9281 c-6 -11 29 -33 38 -24 11 11 -3 22 -20 16 -11 -4 -14 -3
-9 5 4 7 5 12 2 12 -3 0 -7 -4 -11 -9z"/>
<path d="M4090 9039 c0 -5 5 -7 10 -4 6 3 10 8 10 11 0 2 -4 4 -10 4 -5 0 -10
-5 -10 -11z"/>
<path d="M5707 8709 c7 -7 15 -10 18 -7 3 3 -2 9 -12 12 -14 6 -15 5 -6 -5z"/>
<path d="M5694 8678 c-4 -7 -4 -10 1 -6 4 4 15 2 24 -5 14 -11 14 -10 2 6 -16
20 -18 21 -27 5z"/>
<path d="M4678 8463 c7 -3 16 -2 19 1 4 3 -2 6 -13 5 -11 0 -14 -3 -6 -6z"/>
</g>
</svg>
